<svg
    xmlns="http://www.w3.org/2000/svg"
    xmlns:xlink="http://www.w3.org/1999/xlink"
    viewBox="0 0 322 55"
>
    <defs>
    <path id="a" d="M0 54.16h321.378V0H0z" />
    <linearGradient id="c" x1="98.895%" x2="55.018%" y1="81.693%" y2="56.874%">
        <stop offset="0%" stop-color="#0C6E3E" stop-opacity=".483" />
        <stop offset="100%" stop-color="#25B05B" stop-opacity="0" />
    </linearGradient>
    <path
        id="d"
        d="M1.09.122c1.769.01 6.375 1.434 18.808 6.957L4.22 18.889c-.043-3.505-.607-6.624-1.311-9.258C1.678 5.029.026 1.91 0 .82V.77A.507.507 0 0 1 .053.537C.183.303.445.125 1.056.122h.035M36.626 43.77l.001-.005.001.007M36.627 43.762l.002-.04M4.22 18.89L19.9 7.079c1.135.505 2.338 1.044 3.61 1.62 19.283 8.716 16.389 26.812 14.798 32.335-.503 1.644-1.451 2.52-1.654 2.7l-.1.084-.15.11c.104-.095-2.772.872-4.29.824-11.676.415-19.01-3.051-23.228-8.073-2.246-2.676-3.608-5.792-4.27-9a24.547 24.547 0 0 1-.446-6.383"
    />
    </defs>
    <g fill="none" fill-rule="evenodd" transform="translate(.476 .317)">
    <path
        fill="#25B05B"
        d="M73.667 31.34h5.723c0 4.528 2.59 7.266 6.92 7.266 3.783 0 5.874-1.743 5.874-4.88 0-2.635-1.244-3.98-5.177-5.572l-5.675-2.291c-4.379-1.693-6.67-4.827-6.67-9.257 0-5.676 4.58-9.557 11.151-9.557 6.92 0 11.499 4.329 11.499 10.9h-5.726c0-3.834-2.09-6.022-5.973-6.022-3.286 0-5.176 1.69-5.176 4.33 0 2.39 1.692 3.98 5.773 5.624l5.127 2.092c4.38 1.79 6.571 4.878 6.571 9.606 0 5.972-4.63 10.003-11.548 10.003-8.064 0-12.693-4.43-12.693-12.243"
    />
    <path
        stroke="#25B05B"
        stroke-width=".744"
        d="M73.667 31.34h5.723c0 4.528 2.59 7.266 6.92 7.266 3.783 0 5.874-1.743 5.874-4.88 0-2.635-1.244-3.98-5.177-5.572l-5.675-2.291c-4.379-1.693-6.67-4.827-6.67-9.257 0-5.676 4.58-9.557 11.151-9.557 6.92 0 11.499 4.329 11.499 10.9h-5.726c0-3.834-2.09-6.022-5.973-6.022-3.286 0-5.176 1.69-5.176 4.33 0 2.39 1.692 3.98 5.773 5.624l5.127 2.092c4.38 1.79 6.571 4.878 6.571 9.606 0 5.972-4.63 10.003-11.548 10.003-8.064 0-12.693-4.43-12.693-12.243z"
    />
    <path
        fill="#25B05B"
        d="M121.95 31.14c0-4.331-2.787-7.367-6.77-7.367-4.081 0-6.87 2.987-6.87 7.367s2.789 7.367 6.87 7.367c3.983 0 6.77-3.038 6.77-7.367m5.425 0c0 7.167-4.678 12.194-11.397 12.194-3.088 0-6.024-1.493-7.467-3.733v13.59h-5.377V19.542h5.377v3.135c1.443-2.24 4.53-3.733 7.815-3.733 6.62 0 11.05 4.878 11.05 12.196"
    />
    <path
        stroke="#25B05B"
        stroke-width=".744"
        d="M121.95 31.14c0-4.331-2.787-7.367-6.77-7.367-4.081 0-6.87 2.987-6.87 7.367s2.789 7.367 6.87 7.367c3.983 0 6.77-3.038 6.77-7.367zm5.425 0c0 7.167-4.678 12.194-11.397 12.194-3.088 0-6.024-1.493-7.467-3.733v13.59h-5.377V19.542h5.377v3.135c1.443-2.24 4.53-3.733 7.815-3.733 6.62 0 11.05 4.878 11.05 12.196z"
    />
    <path
        fill="#25B05B"
        d="M132.601 19.543h5.426v4.479c.847-3.287 3.634-4.78 6.174-4.78.845 0 1.542.052 2.139.2v4.977c-.846-.099-1.294-.099-2.139-.099-3.834 0-6.174 2.888-6.174 8.163v10.254h-5.426V19.543z"
    />
    <path
        stroke="#25B05B"
        stroke-width=".744"
        d="M132.601 19.543h5.426v4.479c.847-3.287 3.634-4.78 6.174-4.78.845 0 1.542.052 2.139.2v4.977c-.846-.099-1.294-.099-2.139-.099-3.834 0-6.174 2.888-6.174 8.163v10.254h-5.426V19.543z"
    />
    <mask id="b" fill="#fff">
        <use xlink:href="#a" />
    </mask>
    <path
        fill="#25B05B"
        d="M150.821 42.737h5.375V19.543h-5.375v23.194zm-1.344-30.56c0-2.243 1.642-4.034 4.031-4.034 2.39 0 4.034 1.791 4.034 4.033 0 2.24-1.644 4.031-4.034 4.031-2.389 0-4.03-1.791-4.03-4.03z"
        mask="url(#b)"
    />
    <path
        stroke="#25B05B"
        stroke-width=".744"
        d="M150.821 42.737h5.375V19.543h-5.375v23.194zm-1.344-30.56c0-2.243 1.642-4.034 4.031-4.034 2.39 0 4.034 1.791 4.034 4.033 0 2.24-1.644 4.031-4.034 4.031-2.389 0-4.03-1.791-4.03-4.03z"
        mask="url(#b)"
    />
    <path
        fill="#25B05B"
        d="M163.165 19.543h5.425v3.235c1.443-2.489 4.132-3.834 7.567-3.834 5.575 0 8.463 3.136 8.463 9.21v14.583h-5.426V30.642c0-4.928-1.296-7.069-5.078-7.069-3.535 0-5.526 2.341-5.526 6.421v12.743h-5.425V19.543z"
        mask="url(#b)"
    />
    <path
        stroke="#25B05B"
        stroke-width=".744"
        d="M163.165 19.543h5.425v3.235c1.443-2.489 4.132-3.834 7.567-3.834 5.575 0 8.463 3.136 8.463 9.21v14.583h-5.426V30.642c0-4.928-1.296-7.069-5.078-7.069-3.535 0-5.526 2.341-5.526 6.421v12.743h-5.425V19.543z"
        mask="url(#b)"
    />
    <path
        fill="#25B05B"
        d="M208.661 31.14c0-3.981-2.439-7.367-6.869-7.367-4.083 0-6.77 3.137-6.77 7.367s2.687 7.367 6.77 7.367c4.43 0 6.87-3.385 6.87-7.367zm5.177-11.598v22.2c0 4.58-1.443 8.015-4.181 10.006-1.941 1.443-4.63 2.04-7.965 2.04-3.085 0-6.022-.649-8.163-2.09-2.19-1.495-3.583-3.735-3.684-6.322h5.674c.45 2.39 2.39 3.933 6.124 3.933 4.43 0 6.77-1.942 6.77-7.169v-2.539c-1.395 2.34-4.58 3.733-7.417 3.733-7.219 0-11.4-5.375-11.4-12.194 0-6.82 4.581-12.196 11.548-12.196 3.087 0 5.874 1.395 7.268 3.733v-3.135h5.426z"
        mask="url(#b)"
    />
    <path
        stroke="#25B05B"
        stroke-width=".744"
        d="M208.661 31.14c0-3.981-2.439-7.367-6.869-7.367-4.083 0-6.77 3.137-6.77 7.367s2.687 7.367 6.77 7.367c4.43 0 6.87-3.385 6.87-7.367zm5.177-11.598v22.2c0 4.58-1.443 8.015-4.181 10.006-1.941 1.443-4.63 2.04-7.965 2.04-3.085 0-6.022-.649-8.163-2.09-2.19-1.495-3.583-3.735-3.684-6.322h5.674c.45 2.39 2.39 3.933 6.124 3.933 4.43 0 6.77-1.942 6.77-7.169v-2.539c-1.395 2.34-4.58 3.733-7.417 3.733-7.219 0-11.4-5.375-11.4-12.194 0-6.82 4.581-12.196 11.548-12.196 3.087 0 5.874 1.395 7.268 3.733v-3.135h5.426z"
        mask="url(#b)"
    />
    <path
        fill="#25B05B"
        d="M227.675 13.27H217.57V7.894h25.983v5.376h-10.152v29.467h-5.726z"
        mask="url(#b)"
    />
    <path
        stroke="#25B05B"
        stroke-width=".744"
        d="M227.675 13.27H217.57V7.894h25.983v5.376h-10.152v29.467h-5.726z"
        mask="url(#b)"
    />
    <path
        fill="#25B05B"
        d="M262.967 28.8c-.05-3.583-2.141-5.574-5.874-5.574-3.832 0-6.122 2.29-6.172 5.574h12.046zm-17.422 2.34c0-7.416 4.58-12.196 11.649-12.196 6.62 0 11.099 4.48 11.099 11.001 0 .946-.05 1.693-.15 2.987h-17.222c.15 3.683 2.538 5.674 6.47 5.674 2.688 0 4.282-.846 5.179-2.639h5.475c-.698 4.331-5.078 7.367-10.654 7.367-7.316 0-11.846-4.679-11.846-12.194z"
        mask="url(#b)"
    />
    <path
        stroke="#25B05B"
        stroke-width=".744"
        d="M262.967 28.8c-.05-3.583-2.141-5.574-5.874-5.574-3.832 0-6.122 2.29-6.172 5.574h12.046zm-17.422 2.34c0-7.416 4.58-12.196 11.649-12.196 6.62 0 11.099 4.48 11.099 11.001 0 .946-.05 1.693-.15 2.987h-17.222c.15 3.683 2.538 5.674 6.47 5.674 2.688 0 4.282-.846 5.179-2.639h5.475c-.698 4.331-5.078 7.367-10.654 7.367-7.316 0-11.846-4.679-11.846-12.194z"
        mask="url(#b)"
    />
    <path
        fill="#25B05B"
        d="M271.777 31.14c0-7.219 4.331-12.196 11.548-12.196 6.472 0 10.503 3.535 11.001 8.86H288.9c-.595-2.636-2.289-4.03-5.575-4.03-3.832 0-6.122 2.638-6.122 7.366s2.29 7.367 6.122 7.367c3.286 0 4.98-1.345 5.575-3.782h5.426c-.498 5.174-4.529 8.609-11.001 8.609-7.217 0-11.548-4.977-11.548-12.194"
        mask="url(#b)"
    />
    <path
        stroke="#25B05B"
        stroke-width=".744"
        d="M271.777 31.14c0-7.219 4.331-12.196 11.548-12.196 6.472 0 10.503 3.535 11.001 8.86H288.9c-.595-2.636-2.289-4.03-5.575-4.03-3.832 0-6.122 2.638-6.122 7.366s2.29 7.367 6.122 7.367c3.286 0 4.98-1.345 5.575-3.782h5.426c-.498 5.174-4.529 8.609-11.001 8.609-7.217 0-11.548-4.977-11.548-12.194z"
        mask="url(#b)"
    />
    <path
        fill="#25B05B"
        d="M321.007 28.154v14.583h-5.426V30.642c0-4.927-1.296-7.068-5.077-7.068-3.536 0-5.527 2.34-5.527 6.42v12.743h-5.426V7.894h5.426v14.884c1.444-2.49 4.132-3.834 7.566-3.834 5.576 0 8.464 3.137 8.464 9.21"
        mask="url(#b)"
    />
    <path
        stroke="#25B05B"
        stroke-width=".744"
        d="M321.007 28.154v14.583h-5.426V30.642c0-4.927-1.296-7.068-5.077-7.068-3.536 0-5.527 2.34-5.527 6.42v12.743h-5.426V7.894h5.426v14.884c1.444-2.49 4.132-3.834 7.566-3.834 5.576 0 8.464 3.137 8.464 9.21z"
        mask="url(#b)"
    />
    <path
        fill="#25B05B"
        d="M36.64 43.648h.001v-.005c0 .002 0 .005.002.007l-.003-.002M36.645 43.59h-.001m-.003.05c0-.014.002-.027.003-.04-.001.013-.001.027-.003.04M19.912 6.957C3.004-.553.57-.485.067.415c-.395.707 1.49 3.988 2.856 9.093.705 2.635 1.268 5.754 1.311 9.26m0 0c.01.784-.004 1.585-.051 2.406-.122 2.1.008 4.261.446 6.384.662 3.206 2.024 6.323 4.27 8.998 4.217 5.022 11.553 8.489 23.227 8.075 1.518.047 4.395-.92 4.29-.825l.152-.11.1-.084c.201-.18 1.15-1.056 1.654-2.7 1.59-5.523 4.484-23.62-14.8-32.335a556.861 556.861 0 0 0-3.61-1.62"
        mask="url(#b)"
    />
    <path
        fill="url(#c)"
        d="M36.64 43.648h.001v-.005c0 .002 0 .005.002.007l-.003-.002M36.645 43.59h-.001m-.003.05c0-.014.002-.027.003-.04-.001.013-.001.027-.003.04M19.912 6.957C3.004-.553.57-.485.067.415c-.395.707 1.49 3.988 2.856 9.093.705 2.635 1.268 5.754 1.311 9.26m0 0c.01.784-.004 1.585-.051 2.406-.122 2.1.008 4.261.446 6.384.662 3.206 2.024 6.323 4.27 8.998 4.217 5.022 11.553 8.489 23.227 8.075 1.518.047 4.395-.92 4.29-.825l.152-.11.1-.084c.201-.18 1.15-1.056 1.654-2.7 1.59-5.523 4.484-23.62-14.8-32.335a556.861 556.861 0 0 0-3.61-1.62"
        mask="url(#b)"
    />
    <g mask="url(#b)">
        <g transform="translate(0 -.122)">
        <mask id="e" fill="#fff">
            <use xlink:href="#d" />
        </mask>
        <path
            d="M36.626 43.77l.001-.005.001.007-.002-.002M36.627 43.762l.002-.04a.729.729 0 0 1-.002.04M19.898 7.079C2.991-.431.556-.364.053.537c-.394.707 1.49 3.988 2.856 9.094.704 2.634 1.268 5.753 1.31 9.259m0 0c.01.784-.004 1.585-.05 2.406-.123 2.1.008 4.262.446 6.384.662 3.207 2.024 6.323 4.27 8.999 4.218 5.022 11.552 8.488 23.227 8.073 1.519.048 4.395-.919 4.29-.824l.152-.11.1-.084c.202-.18 1.15-1.056 1.653-2.7 1.59-5.523 4.485-23.62-14.799-32.336a575.566 575.566 0 0 0-3.61-1.62"
            mask="url(#e)"
        />
        </g>
    </g>
    <path
        fill="#FFF"
        d="M36.985 43.358L13.421 15.862l-.308.27 23.547 27.4zM12.83 27.097c-.084.28-.055.58.084.838a1.099 1.099 0 1 0 1.94-1.039 1.103 1.103 0 0 0-1.01-.58 1.106 1.106 0 0 0-1.014.781"
        mask="url(#b)"
    />
    <path
        fill="#FFF"
        d="M11.795 15.925a1.098 1.098 0 0 0 1.553.1 1.1 1.1 0 1 0-.637-1.922l-.026-.002a1.087 1.087 0 0 0-.79.272c-.455.4-.5 1.096-.1 1.552M39.02 41.055L26.97 27.168l.005-.055.355-5.534a.2.2 0 0 0-.05-.148l-1.961-2.242-.294.299 1.888 2.15-.005.056-.356 5.536a.2.2 0 0 0 .052.149l12.154 14.003.262-.327z"
        mask="url(#b)"
    />
    <path
        fill="#FFF"
        d="M23.687 19.333c.189.216.45.347.735.37.31.02.596-.075.817-.27a1.09 1.09 0 0 0 .371-.755 1.098 1.098 0 0 0-1.007-1.167l-.024-.001a1.092 1.092 0 0 0-.793.271 1.097 1.097 0 0 0-.099 1.552M16.381 30.656l5.588.406 11.622 13.274.109.125.472-.094-.12-.136L22.227 30.73a.201.201 0 0 0-.14-.072L16.5 30.25l-.038-.041-1.835-2.122-.336.25 1.952 2.248a.197.197 0 0 0 .14.07"
        mask="url(#b)"
    />
    <path
        fill="#25B05B"
        d="M36.766 43.885v-.004l.001.003-.001.001m-.002-.031l.003.024v.001a.262.262 0 0 0-.003-.025M56.63 27.456c-.053-2.211.23-4.19.615-5.867.745-3.25 1.858-5.362 1.593-5.8-.338-.556-1.875-.542-12.363 4.579m0 0c-.705.344-1.451.712-2.24 1.103-11.958 5.937-9.72 17.28-8.591 20.727.355 1.024.974 1.555 1.105 1.664 0 0 .129.104.162.116.032.013 1.768.487 2.723.422 7.37-.005 11.917-2.358 14.46-5.621 1.356-1.739 2.143-3.734 2.487-5.771.228-1.349.261-2.715.136-4.035a21.454 21.454 0 0 1-.087-1.517"
        mask="url(#b)"
    />
    <path
        fill="#FFF"
        d="M46.9 38.41a.084.084 0 0 0 .058-.036l.403-.568-.15-.107-.38.536-3.326.568a.088.088 0 0 0-.059.036l-4.003 5.567.237-.006 3.895-5.423 3.325-.566z"
        mask="url(#b)"
    />
    <path
        fill="#FFF"
        d="M47.6 37.926a.645.645 0 1 0 .082-1.292.653.653 0 0 0-.469.16.64.64 0 0 0-.217.447.65.65 0 0 0 .605.685M39.318 32.983a.087.087 0 0 1 .015-.067l.408-.564.15.107-.385.533.535 3.332a.084.084 0 0 1-.016.066l-4.292 6.023-.086-.207 4.206-5.893-.535-3.33z"
        mask="url(#b)"
    />
    <path
        fill="#FFF"
        d="M39.55 32.163a.647.647 0 1 1 1.195-.494.647.647 0 0 1-1.194.494M37.26 44.068l.115-.16 9.23-12.757-.189-.141-9.243 12.76-.156.233c.082.03.237.062.243.065M46.5 31.065a.644.644 0 0 0 .906-.132.652.652 0 0 0 .122-.482.638.638 0 0 0-.255-.426.636.636 0 0 0-.478-.122.66.66 0 0 0-.429.255.65.65 0 0 0 .135.907"
        mask="url(#b)"
    />
    </g>
</svg>
